<?xml version="1.0" encoding="UTF-8" standalone="no"?>
<!-- Created with Inkscape (http://www.inkscape.org/) -->

<svg
   width="48.321362mm"
   height="48.347038mm"
   viewBox="0 0 48.321362 48.347038"
   version="1.1"
   id="svg5"
   xml:space="preserve"
   xmlns="http://www.w3.org/2000/svg"
   xmlns:svg="http://www.w3.org/2000/svg"><defs
     id="defs2" /><g
     id="layer1"
     transform="translate(-61.175024,-5.0274561)"><path
       style="fill:#a6947d;fill-opacity:1;stroke:#000000;stroke-width:0.175049;stroke-dasharray:none;stroke-opacity:1"
       id="path64679"
       d="m 86.148468,13.262763 c 1.164412,-1.384511 3.068214,-3.6731013 1.792206,-5.1095151 1.522362,0.2107372 1.668,1.3408487 1.713271,2.4966661 0.04801,1.225778 0.0071,2.490399 0.84001,3.513605 -1.403466,-0.531408 -2.868152,-0.847886 -4.345487,-0.900756 z m 4.977653,1.156342 c 1.588199,-0.868618 4.124426,-2.409382 3.412341,-4.184561 1.347675,0.683726 1.119753,1.791722 0.787674,2.911251 -0.349601,1.178605 -0.795867,2.38282 -0.302749,3.633199 -1.198142,-0.961751 -2.513421,-1.764606 -3.897266,-2.359889 z m 4.432476,2.806811 c 1.812307,-0.336777 4.685883,-1.057917 4.550983,-2.972244 1.07418,1.058851 0.52524,2.050726 -0.126371,3.024648 -0.686716,1.026388 -1.467107,2.043631 -1.361785,3.379581 -0.864079,-1.263082 -1.901213,-2.423302 -3.062827,-3.431985 z m 3.442691,4.011731 c 1.821592,0.207089 4.767732,0.385212 5.208142,-1.472567 0.70433,1.337936 -0.118,2.116041 -1.02888,2.836857 -0.96739,0.765542 -2.00255,1.47642 -2.33709,2.752752 -0.40128,-1.435399 -1.031527,-2.823971 -1.842172,-4.117042 z m 2.008302,4.771101 c 1.61349,0.748127 4.37254,1.934859 5.3838,0.31447 0.3261,2.097584 -1.79519,2.209546 -3.33772,2.827307 -0.68914,0.277354 -1.31255,0.648516 -1.75838,1.270838 0.0356,-0.423009 0.0501,-0.84761 0.0422,-1.27265 0.0218,-1.054956 -0.094,-2.107488 -0.32988,-3.139965 z m 0.21398,5.079178 c 1.2564,1.288151 3.36575,3.379835 4.90508,2.24265 -0.33819,1.488152 -1.47167,1.53497 -2.62862,1.480645 -1.22378,-0.05746 -2.48527,-0.205784 -3.578528,0.546292 0.651158,-1.364178 1.101408,-2.803565 1.302068,-4.269587 z m -1.611005,4.882976 c 0.737215,1.663722 2.079395,4.310546 3.908245,3.742335 -0.78672,1.288382 -1.87452,0.975517 -2.96786,0.55794 -1.150466,-0.439393 -2.319613,-0.976345 -3.604761,-0.57552 1.049229,-1.126651 1.953579,-2.384427 2.664376,-3.724755 z m -3.150013,4.226581 c 0.201389,1.835148 0.705983,4.75097 2.62405,4.760531 -1.137546,0.990673 -2.085358,0.368929 -3.00592,-0.353219 -0.971537,-0.762135 -1.922915,-1.61387 -3.25778,-1.613612 1.318286,-0.760383 2.547728,-1.707807 3.63965,-2.7937 z m -4.243473,3.125574 c -0.343383,1.789638 -0.762183,4.7139 1.052485,5.297239 -1.393132,0.596713 -2.101695,-0.286483 -2.742785,-1.252831 -0.682565,-1.028864 -1.299614,-2.115185 -2.53759,-2.567984 1.458331,-0.265374 2.883853,-0.773706 4.22789,-1.476424 z m -4.891388,1.579956 c -0.881098,1.529017 -2.341103,4.197515 -0.806445,5.35246 -0.445383,0.02983 -0.799913,-0.0437 -1.078692,-0.187186 0,0 -10e-7,-10e-7 -10e-7,-10e-7 -0.813002,-0.439604 -0.984586,-1.462981 -1.203959,-2.477599 -0.226823,-1.049071 -0.494771,-2.070784 -1.330086,-2.795879 0.83852,0.154169 1.688049,0.227968 2.539346,0.212134 0.628717,0.01301 1.256574,-0.02287 1.879837,-0.103929 z M 82.24977,44.656755 c -1.400226,1.127877 -3.659663,3.052336 -2.662962,4.682671 -1.447565,-0.459585 -1.399239,-1.590432 -1.248743,-2.741735 0.158852,-1.215225 0.410723,-2.465612 -0.257816,-3.620092 1.316835,0.762839 2.722867,1.338782 4.169521,1.679156 z m -4.760479,-2.037783 c -1.726437,0.604667 -4.466017,1.744071 -4.042197,3.613956 -1.222974,-0.883591 -0.82832,-1.945331 -0.32893,-3.005633 0.525496,-1.115729 1.148484,-2.241927 0.843053,-3.552964 1.047102,1.128633 2.239318,2.126405 3.528074,2.944641 z m -3.992863,-3.46533 c -1.844345,0.0654 -4.786244,0.348158 -4.939946,2.257872 -0.901162,-1.210277 -0.209544,-2.107822 0.579341,-2.968344 0.834077,-0.909818 1.752083,-1.788001 1.860202,-3.112624 0.648629,1.365418 1.498287,2.656008 2.500403,3.823096 z m -2.780632,-4.447335 c -1.744101,-0.479223 -4.630194,-1.146101 -5.35621,0.614418 -0.482946,-1.442577 0.457905,-2.07497 1.476068,-2.629865 1.086687,-0.592241 2.219435,-1.109086 2.793635,-2.299073 0.121413,1.473192 0.499773,2.92759 1.086507,4.31452 z M 69.59201,29.722511 c -0.275408,-0.194728 -0.589251,-0.40673 -0.904652,-0.607983 -1.424289,-0.895014 -3.240621,-1.907369 -4.366735,-0.704297 0.07762,-1.550068 1.198258,-1.798062 2.346255,-1.94603 1.221185,-0.157402 2.48112,-0.227262 3.425579,-1.138219 -0.348652,1.238356 -0.526744,2.511931 -0.502971,3.789483 -0.0042,0.20248 -0.0033,0.40487 0.0025,0.607046 z m 0.699166,-5.043789 c -0.998586,-1.500409 -2.733203,-3.907927 -4.44228,-3.053141 0.574856,-1.40067 1.697179,-1.260741 2.835998,-1.017566 1.200149,0.256271 2.431418,0.607602 3.638303,0.02542 -0.866442,1.261437 -1.560008,2.626057 -2.032021,4.045287 z m 2.436676,-4.61016 c -0.471041,-1.776068 -1.403335,-4.591117 -3.301682,-4.311929 0.974353,-1.151496 2.004111,-0.678113 3.024553,-0.100641 1.07435,0.607978 2.149821,1.312211 3.477815,1.105345 -1.199964,0.959498 -2.283084,2.078098 -3.200686,3.307225 z m 3.752765,-3.731322 c 0.07095,-1.839814 0.01579,-4.79179 -1.87371,-5.089232 1.277102,-0.80564 2.118063,-0.04709 2.91192,0.804742 0.841127,0.902554 1.638991,1.881734 2.944114,2.101556 -1.404477,0.528816 -2.748143,1.272653 -3.982324,2.182934 z m 4.623316,-2.407865 c 0.61433,-1.685208 1.537247,-4.5163879 -0.158364,-5.3850524 1.486295,-0.3629522 2.035842,0.6321806 2.498098,1.6985844 0.494456,1.140688 0.90495,2.31548 2.037199,3.014052 -1.47998,-0.03061 -2.955182,0.209723 -4.376933,0.672416 z"
       class="UnoptimicedTransforms"
       transform="matrix(1.1425388,0,0,1.1425369,-12.200256,-4.1517098)" /><g
       id="g65810"><path
         id="path409"
         style="fill:#a6947d;fill-opacity:1;stroke:#000000;stroke-width:0.2;stroke-dasharray:none"
         d="M 85.484994,9.5764591 A 19.555491,19.555491 0 0 0 65.908992,29.111442 19.555491,19.555491 0 0 0 85.443981,48.687441 19.555491,19.555491 0 0 0 105.01997,29.152457 19.555491,19.555491 0 0 0 85.4855,9.5764591 Z m -0.0089,8.5309179 H 85.4766 A 11.024571,11.024571 0 0 1 96.48906,29.143742 11.024571,11.024571 0 0 1 85.453207,40.156522 11.024571,11.024571 0 0 1 74.43991,29.120671 11.024571,11.024571 0 0 1 85.475758,18.107377 Z" /><path
         style="color:#000000;fill:#ffffff;stroke:#000000;stroke-width:0.2;stroke-dasharray:none"
         d="m 85.479167,14.830078 c -7.883179,-0.0081 -14.310173,6.40393 -14.318359,14.287109 -0.0082,7.88318 6.405883,14.310105 14.289062,14.31836 7.883179,0.0083 14.310036,-6.405884 14.318359,-14.289063 0.0083,-7.883179 -6.405883,-14.308013 -14.289062,-14.316406 z m -0.002,2.699219 c 6.424001,0.0068 11.596627,5.191233 11.589844,11.615234 -0.0068,6.424001 -5.191233,11.596571 -11.615235,11.589844 -6.424001,-0.0067 -11.596514,-5.191233 -11.589844,-11.615234 0.0067,-6.424002 5.191233,-11.596459 11.615235,-11.589844 z"
         id="path47170" /><g
         id="g43138"
         transform="translate(8.0844683,2.2149805)"><path
           id="path11163"
           style="color:#000000;fill:#a6947d;stroke:#000000;stroke-width:0.2;stroke-dasharray:none"
           d="M 84.402083,14.727783 87.141451,9.9838867 C 84.27128,8.3202714 80.943521,7.3650798 77.400444,7.3613078 c -0.0026,-2.7e-6 -0.0052,1.6e-6 -0.0078,0 V 12.86123 h 0.0016 c 2.558178,0.0027 4.948422,0.682815 7.007841,1.866553 z" /><path
           id="path29221"
           style="color:#000000;fill:#a6947d;stroke:#000000;stroke-width:0.2;stroke-dasharray:none"
           d="m 84.424821,14.741219 2.738851,-4.7438964 c -0.0075,-0.00436 -0.01472,-0.00909 -0.02222,-0.013436 l -2.739368,4.7438964 c 0.0076,0.0044 0.01512,0.009 0.02274,0.01344 z" /><path
           id="path29219"
           style="color:#000000;fill:#a6947d;stroke:#000000;stroke-width:0.2;stroke-dasharray:none"
           d="m 89.555774,19.871655 4.74338,-2.738334 C 92.582666,14.18102 90.116305,11.713971 87.163672,9.9973226 l -2.738851,4.7438964 c 2.129965,1.229643 3.901426,3.000787 5.130953,5.130436 z" /><path
           id="path29217"
           style="color:#000000;fill:#a6947d;stroke:#000000;stroke-width:0.2;stroke-dasharray:none"
           d="m 89.568693,19.894393 4.743897,-2.738851 c -0.0043,-0.0075 -0.0091,-0.01474 -0.01344,-0.02222 l -4.74338,2.738334 c 0.0044,0.0075 0.0086,0.01518 0.01292,0.02274 z" /><path
           id="path29215"
           style="color:#000000;fill:#a6947d;stroke:#000000;stroke-width:0.2;stroke-dasharray:none"
           d="m 91.435246,26.904301 h 5.499922 c -0.0022,-3.545358 -0.957419,-6.875985 -2.622578,-9.748759 l -4.743897,2.738851 c 1.184348,2.060282 1.864426,4.451427 1.866553,7.009908 z" /><path
           id="path29213"
           style="color:#000000;fill:#a6947d;stroke:#000000;stroke-width:0.2;stroke-dasharray:none"
           d="m 91.435763,26.929622 h 5.499922 c 6e-6,-0.0085 -5.11e-4,-0.01686 -5.17e-4,-0.02532 h -5.499922 c 7e-6,0.0085 5.24e-4,0.01686 5.17e-4,0.02532 z" /><path
           id="path29211"
           style="color:#000000;fill:#a6947d;stroke:#000000;stroke-width:0.2;stroke-dasharray:none"
           d="m 89.568693,33.93953 4.743897,2.738851 c 1.663611,-2.870159 2.619354,-6.197934 2.623095,-9.741007 3e-6,-0.0026 -1e-6,-0.0052 0,-0.0078 h -5.499922 v 0.0021 c -0.0027,2.558305 -0.683224,4.948361 -1.86707,7.007841 z" /><path
           id="path29209"
           style="color:#000000;fill:#a6947d;stroke:#000000;stroke-width:0.2;stroke-dasharray:none"
           d="m 89.555774,33.962268 4.74338,2.738851 c 0.0044,-0.0076 0.009,-0.01512 0.01344,-0.02274 L 89.568693,33.93953 c -0.0043,0.0076 -0.0086,0.01519 -0.01292,0.02274 z" /><path
           id="path29207"
           style="color:#000000;fill:#a6947d;stroke:#000000;stroke-width:0.2;stroke-dasharray:none"
           d="m 84.425338,39.092704 2.738851,4.742863 c 2.951919,-1.716402 5.418444,-4.182192 7.134965,-7.134448 l -4.74338,-2.738851 c -1.229597,2.129842 -3.000906,3.900931 -5.130436,5.130436 z" /><path
           id="path29205"
           style="color:#000000;fill:#a6947d;stroke:#000000;stroke-width:0.2;stroke-dasharray:none"
           d="m 84.402083,39.105623 2.738851,4.743897 c 0.0078,-0.0045 0.01544,-0.0094 0.02325,-0.01395 l -2.738851,-4.742863 c -0.0077,0.0044 -0.01556,0.0085 -0.02325,0.01292 z" /><path
           id="path29203"
           style="color:#000000;fill:#a6947d;stroke:#000000;stroke-width:0.2;stroke-dasharray:none"
           d="m 77.392692,40.972176 v 5.499923 c 3.545187,-0.0022 6.875555,-0.957562 9.748242,-2.622579 l -2.738851,-4.743897 c -2.060253,1.184286 -4.450984,1.864404 -7.009391,1.866553 z" /><path
           id="path29201"
           style="color:#000000;fill:#a6947d;stroke:#000000;stroke-width:0.2;stroke-dasharray:none"
           d="m 77.367371,40.972693 v 5.499923 c 0.0085,5e-6 0.01685,-5.12e-4 0.02532,-5.17e-4 v -5.499923 c -0.0085,7e-6 -0.01686,5.25e-4 -0.02532,5.17e-4 z" /><path
           id="path29199"
           style="color:#000000;fill:#a6947d;stroke:#000000;stroke-width:0.2;stroke-dasharray:none"
           d="m 70.357463,39.105623 -2.739368,4.744414 c 2.870233,1.663744 6.198298,2.618868 9.741524,2.622579 0.0026,2e-6 0.0052,-2e-6 0.0078,0 v -5.499923 h -0.0021 c -2.55827,-0.0027 -4.948387,-0.683253 -7.007841,-1.86707 z" /><path
           id="path29197"
           style="color:#000000;fill:#a6947d;stroke:#000000;stroke-width:0.2;stroke-dasharray:none"
           d="m 70.334208,39.092704 -2.739368,4.74338 c 0.0078,0.0045 0.01543,0.0094 0.02325,0.01395 l 2.739368,-4.744414 c -0.0077,-0.0044 -0.01558,-0.0085 -0.02325,-0.01292 z" /><path
           id="path29195"
           style="color:#000000;fill:#a6947d;stroke:#000000;stroke-width:0.2;stroke-dasharray:none"
           d="m 65.203772,33.962268 -4.742863,2.738334 c 1.716229,2.951878 4.181912,5.418866 7.133931,7.135482 l 2.739368,-4.74338 C 68.204401,37.863052 66.433227,36.09184 65.203772,33.962268 Z" /><path
           id="path29193"
           style="color:#000000;fill:#a6947d;stroke:#000000;stroke-width:0.2;stroke-dasharray:none"
           d="m 65.190853,33.93953 -4.74338,2.738335 c 0.0044,0.0076 0.009,0.01513 0.01344,0.02274 l 4.742863,-2.738334 c -0.0044,-0.0075 -0.0086,-0.01518 -0.01292,-0.02274 z" /><path
           id="path29191"
           style="color:#000000;fill:#a6947d;stroke:#000000;stroke-width:0.2;stroke-dasharray:none"
           d="m 63.324817,26.929622 h -5.499923 c 0.0023,3.5452 0.957557,6.875536 2.622579,9.748243 l 4.74338,-2.738335 c -1.184312,-2.06027 -1.863865,-4.451469 -1.866036,-7.009908 z" /><path
           id="path29189"
           style="color:#000000;fill:#a6947d;stroke:#000000;stroke-width:0.2;stroke-dasharray:none"
           d="m 63.3243,26.904301 h -5.499923 c -5e-6,0.0085 5.12e-4,0.01686 5.17e-4,0.02532 h 5.499923 c -7e-6,-0.0085 -5.24e-4,-0.01685 -5.17e-4,-0.02532 z" /><path
           id="path29187"
           style="color:#000000;fill:#a6947d;stroke:#000000;stroke-width:0.2;stroke-dasharray:none"
           d="m 65.19137,19.894393 -4.744414,-2.738851 c -1.663606,2.870135 -2.618899,6.19794 -2.622579,9.741007 -2e-6,0.0026 2e-6,0.0052 0,0.0078 H 63.3243 v -0.0021 c 0.0027,-2.558351 0.683184,-4.94835 1.86707,-7.007841 z" /><path
           id="path29185"
           style="color:#000000;fill:#a6947d;stroke:#000000;stroke-width:0.2;stroke-dasharray:none"
           d="m 65.204289,19.871655 -4.743897,-2.738851 c -0.0044,0.0076 -0.009,0.01512 -0.01344,0.02274 l 4.744414,2.738851 c 0.0043,-0.0076 0.0086,-0.01519 0.01292,-0.02274 z" /><path
           id="path29183"
           style="color:#000000;fill:#a6947d;stroke:#000000;stroke-width:0.2;stroke-dasharray:none"
           d="M 70.334725,14.741219 67.595874,9.9978394 c -2.95205,1.7164136 -5.418917,4.1826426 -7.135482,7.1349646 l 4.743897,2.738851 c 1.229638,-2.129848 3.000834,-3.900949 5.130436,-5.130436 z" /><path
           id="path29181"
           style="color:#000000;fill:#a6947d;stroke:#000000;stroke-width:0.2;stroke-dasharray:none"
           d="M 70.357979,14.727783 67.618612,9.9844035 c -0.0076,0.00442 -0.01512,0.00901 -0.02274,0.013436 l 2.738851,4.7433795 c 0.0077,-0.0045 0.01549,-0.009 0.02325,-0.01344 z" /><path
           id="path29179"
           style="color:#000000;fill:#a6947d;stroke:#000000;stroke-width:0.2;stroke-dasharray:none"
           d="m 77.367371,7.3618245 c -3.545359,0.00229 -6.875955,0.9574188 -9.748759,2.622579 l 2.739367,4.7433795 c 2.060295,-1.184205 4.450983,-1.863926 7.009392,-1.866036 z" /><path
           id="path29177"
           style="color:#000000;fill:#a6947d;stroke:#000000;stroke-width:0.2;stroke-dasharray:none"
           d="m 77.367371,7.3618245 v 5.4999225 c 0.0085,-7e-6 0.01684,-5.24e-4 0.02532,-5.17e-4 V 7.3613078 c -0.0085,-5.4e-6 -0.01686,5.113e-4 -0.02532,5.167e-4 z" /></g><path
         id="path11355"
         style="color:#000000;fill:#ffffff;stroke:#000000;stroke-width:0.2;stroke-dasharray:none"
         d="M 92.290677,15.982619 94.28332,12.53115 c -2.448901,-1.307242 -5.218308,-2.088502 -8.156608,-2.191081 v 4.00234 c 2.218636,0.0969 4.307253,0.677901 6.163965,1.64021 z" /><path
         id="path30753"
         style="color:#000000;fill:#ffffff;stroke:#000000;stroke-width:0.2;stroke-dasharray:none"
         d="m 97.952864,21.15698 3.447846,-1.990576 c -1.514116,-2.41106 -3.559366,-4.456466 -5.97069,-5.970695 l -1.991093,3.448368 c 1.813735,1.15759 3.356419,2.699379 4.513937,4.512903 z" /><path
         id="path30749"
         style="color:#000000;fill:#ffffff;stroke:#000000;stroke-width:0.2;stroke-dasharray:none"
         d="m 100.25401,28.469712 h 4.00234 c -0.10238,-2.937829 -0.88311,-5.707371 -2.19056,-8.156608 l -3.451985,1.992643 c 0.962494,1.857028 1.543465,3.945616 1.640205,6.163965 z" /><path
         id="path30745"
         style="color:#000000;fill:#e8b39d;fill-opacity:1;stroke:#000000;stroke-width:0.2;stroke-dasharray:none"
         d="m 98.614322,35.958144 3.450948,1.992643 c 1.30701,-2.448462 2.08831,-5.217335 2.19108,-8.155058 h -4.00234 c -0.0971,2.217974 -0.677669,4.306194 -1.639688,6.162415 z" /><path
         id="path30741"
         style="color:#000000;fill:#e8b39d;fill-opacity:1;stroke:#000000;stroke-width:0.2;stroke-dasharray:none"
         d="m 93.439444,41.62033 1.990576,3.447852 c 2.411069,-1.51412 4.456465,-3.55938 5.97069,-5.970695 l -3.448363,-1.991093 c -1.157589,1.813727 -2.69938,3.35642 -4.512903,4.513936 z" /><path
         id="path30737"
         style="color:#000000;fill:#e8b39d;fill-opacity:1;stroke:#000000;stroke-width:0.2;stroke-dasharray:none"
         d="m 86.126712,43.921482 v 4.00234 c 2.937806,-0.102411 5.707378,-0.883131 8.156608,-2.190564 l -1.992643,-3.451986 c -1.857028,0.962495 -3.945616,1.543448 -6.163965,1.64021 z" /><path
         id="path30733"
         style="color:#000000;fill:#ce6549;fill-opacity:1;stroke:#000000;stroke-width:0.2;stroke-dasharray:none"
         d="m 78.63828,42.281789 -1.992643,3.450952 c 2.448311,1.306933 5.217011,2.088255 8.154541,2.191081 v -4.002857 c -2.217775,-0.09714 -4.305832,-0.677237 -6.161898,-1.639176 z" /><path
         id="path30729"
         style="color:#000000;fill:#ce6549;fill-opacity:1;stroke:#000000;stroke-width:0.2;stroke-dasharray:none"
         d="m 72.976094,37.106911 -3.447852,1.990576 c 1.514119,2.411077 3.559389,4.456464 5.970695,5.970695 l 1.991093,-3.448368 c -1.813721,-1.157591 -3.356421,-2.69937 -4.513936,-4.512903 z" /><path
         id="path30725"
         style="color:#000000;fill:#ce6549;fill-opacity:1;stroke:#000000;stroke-width:0.2;stroke-dasharray:none"
         d="m 70.674942,29.795729 h -4.00234 c 0.102656,2.937256 0.88334,5.706235 2.190564,8.155058 l 3.451986,-1.99316 c -0.962147,-1.856506 -1.543236,-3.944284 -1.64021,-6.161898 z" /><path
         id="path30721"
         style="color:#000000;fill:#b40f0b;fill-opacity:1;stroke:#000000;stroke-width:0.2;stroke-dasharray:none"
         d="m 72.314635,22.305747 -3.451469,-1.992643 c -1.307263,2.448952 -2.088106,5.218215 -2.190564,8.156608 h 4.00234 c 0.09686,-2.218564 0.677441,-4.307316 1.639693,-6.163965 z" /><path
         id="path30717"
         style="color:#000000;fill:#b40f0b;fill-opacity:1;stroke:#000000;stroke-width:0.2;stroke-dasharray:none"
         d="m 77.489513,16.64356 -1.990576,-3.447851 c -2.411086,1.514118 -4.456463,3.559398 -5.970695,5.970695 l 3.448368,1.991093 c 1.157593,-1.813714 2.699362,-3.356422 4.512903,-4.513937 z" /><path
         id="path30713"
         style="color:#000000;fill:#b40f0b;fill-opacity:1;stroke:#000000;stroke-width:0.2;stroke-dasharray:none"
         d="m 84.800178,10.340586 c -2.937058,0.102756 -5.705858,0.8829 -8.154541,2.190047 l 1.992643,3.451986 c 1.856471,-0.9622 3.944313,-1.543144 6.161898,-1.64021 z" /><path
         style="fill:#a6947d;fill-opacity:1;stroke:#000000;stroke-width:0.199644;stroke-dasharray:none;stroke-opacity:1"
         id="path50777"
         class="UnoptimicedTransforms"
         transform="matrix(1.0035763,0,0,1.0035755,5.0049752,-0.10329898)"
         d="m 81.837251,15.853763 c 0.338221,0.049 0.548652,0.353162 0.488623,0.662465 -0.06004,0.309364 -0.356377,0.511974 -0.650527,0.470597 -0.293911,-0.04134 -0.522872,-0.318252 -0.494016,-0.633874 0.02886,-0.315686 0.317444,-0.54821 0.655899,-0.499191 m 2.192247,0.520005 c 0.321883,0.107442 0.47543,0.442841 0.361764,0.736971 -0.113692,0.294197 -0.441224,0.440535 -0.723754,0.345959 -0.282335,-0.09451 -0.455808,-0.408326 -0.370142,-0.711398 0.08569,-0.303142 0.410036,-0.479032 0.732112,-0.371538 m 2.066218,0.88736 c 0.299386,0.15948 0.396006,0.516574 0.234839,0.789214 -0.161197,0.272689 -0.509994,0.363302 -0.77472,0.221481 -0.264598,-0.141751 -0.38254,-0.481973 -0.2462,-0.766657 0.136366,-0.284737 0.486548,-0.403584 0.786063,-0.244048 m 1.898492,1.212929 c 0.270782,0.205207 0.310324,0.574266 0.107844,0.819193 -0.202499,0.244951 -0.562739,0.280167 -0.80342,0.09717 -0.240626,-0.182957 -0.303146,-0.539305 -0.122191,-0.799655 0.180973,-0.260375 0.546907,-0.321957 0.81775,-0.116718 m 1.689068,1.49671 c 0.236066,0.244711 0.218391,0.615829 -0.01922,0.82691 -0.237607,0.21108 -0.599454,0.19103 -0.80986,-0.02699 -0.210412,-0.218022 -0.217628,-0.580424 0.0019,-0.810388 0.219514,-0.229963 0.591106,-0.234248 0.827174,0.01045 m 1.437945,1.738705 c 0.195191,0.278058 0.120256,0.641196 -0.146346,0.812364 -0.266572,0.171149 -0.620084,0.09582 -0.794035,-0.150978 -0.174001,-0.246868 -0.125945,-0.605411 0.126033,-0.798859 0.251951,-0.193428 0.619184,-0.140527 0.814336,0.137456 m 1.145125,1.938913 c 0.148078,0.305279 0.01599,0.650337 -0.273543,0.775555 -0.28948,0.125193 -0.624547,-0.0055 -0.755947,-0.274808 -0.131471,-0.26945 -0.02802,-0.614308 0.250246,-0.765067 0.278212,-0.15073 0.631213,-0.04083 0.779235,0.264302 m 0.810606,2.097334 c 0.09463,0.326353 -0.0943,0.64327 -0.400807,0.716482 -0.306439,0.07319 -0.612733,-0.112911 -0.695597,-0.398476 -0.08293,-0.285771 0.07626,-0.607113 0.374528,-0.709011 0.298203,-0.101875 0.627285,0.06484 0.72187,0.390985 m 0.434389,2.213969 c 0.03476,0.341194 -0.210529,0.620086 -0.528138,0.635147 -0.317555,0.01506 -0.584538,-0.226316 -0.612984,-0.521982 -0.02847,-0.295907 0.186987,-0.583754 0.498877,-0.630693 0.311836,-0.04693 0.607493,0.17655 0.642243,0.517507 m 0.0072,2.276543 c -0.03345,0.341317 -0.328376,0.565923 -0.640465,0.520182 -0.312143,-0.04575 -0.528862,-0.33275 -0.501638,-0.628845 0.0272,-0.295852 0.293275,-0.538579 0.611123,-0.524831 0.317903,0.01375 0.564442,0.291919 0.530982,0.633473 m -0.422095,2.21713 c -0.0935,0.326528 -0.422011,0.494228 -0.72051,0.39334 -0.298569,-0.100911 -0.458851,-0.421617 -0.376961,-0.707612 0.08183,-0.285787 0.387449,-0.473083 0.694186,-0.400975 0.306809,0.07212 0.496837,0.388492 0.403291,0.715227 m -0.799847,2.101479 c -0.147124,0.305556 -0.49972,0.416355 -0.778293,0.266432 -0.278629,-0.149954 -0.38307,-0.494379 -0.252445,-0.764118 0.130555,-0.269593 0.465175,-0.401348 0.754987,-0.277051 0.28987,0.124323 0.422942,0.469016 0.27576,0.774718 m -1.135813,1.944131 c -0.194412,0.27847 -0.561413,0.332232 -0.813813,0.139455 -0.252431,-0.192801 -0.301414,-0.55111 -0.128089,-0.798359 0.173272,-0.247176 0.526555,-0.323476 0.793523,-0.153059 0.267,0.170438 0.342844,0.533397 0.148391,0.811946 m -1.429992,1.745083 c -0.235458,0.245279 -0.606997,0.241853 -0.827071,0.01241 -0.220078,-0.229447 -0.213778,-0.591817 -0.0039,-0.810338 0.209875,-0.218513 0.571701,-0.239484 0.809798,-0.029 0.238101,0.210491 0.25664,0.581615 0.02118,0.82691 m -1.682386,1.504338 c -0.270332,0.205943 -0.636399,0.145254 -0.818065,-0.114702 -0.18165,-0.259933 -0.120083,-0.616457 0.120136,-0.800053 0.240274,-0.183638 0.600697,-0.149342 0.803809,0.09513 0.203095,0.244452 0.16441,0.613699 -0.105864,0.819611 m -1.892993,1.221894 c -0.299077,0.160391 -0.649578,0.04251 -0.786796,-0.241882 -0.137193,-0.284339 -0.02028,-0.624953 0.244007,-0.767506 0.264416,-0.142621 0.613596,-0.05298 0.775557,0.219328 0.161932,0.272258 0.0662,0.629714 -0.23275,0.79005 m -2.061815,0.897751 c -0.321686,0.10853 -0.64654,-0.06629 -0.733263,-0.369129 -0.0867,-0.302769 0.08562,-0.617201 0.367715,-0.712697 0.282292,-0.09556 0.61041,0.04971 0.725042,0.343593 0.114606,0.29382 -0.03798,0.629749 -0.359474,0.738227 m -2.18885,0.531909 c -0.338092,0.05027 -0.627354,-0.181053 -0.657468,-0.496445 -0.03011,-0.315331 0.197544,-0.593089 0.491262,-0.635623 0.293956,-0.04257 0.591085,0.158824 0.652264,0.467926 0.06117,0.309042 -0.148178,0.613898 -0.486037,0.664139 m -2.271265,0.119364 c -0.344021,-0.0175 -0.582818,-0.302607 -0.551735,-0.617086 0.03109,-0.314523 0.308116,-0.545396 0.605784,-0.532689 0.191661,0.0082 0.369801,0.115514 0.472141,0.288383 0.05328,0.0903 0.08286,0.193442 0.08344,0.29861 5.73e-4,0.104848 -0.02774,0.207857 -0.08406,0.297871 -0.109056,0.173725 -0.30986,0.275876 -0.525545,0.264912 m -2.239428,-0.321598 c -0.330791,-0.07916 -0.512642,-0.400196 -0.424911,-0.702672 0.08775,-0.302545 0.401012,-0.476808 0.690092,-0.407971 0.288858,0.06878 0.489969,0.365554 0.431802,0.675596 -0.05818,0.310113 -0.365955,0.514251 -0.696963,0.435051 m -2.134155,-0.709748 c -0.311348,-0.134375 -0.436317,-0.481875 -0.29802,-0.765995 0.138327,-0.28418 0.477772,-0.402472 0.752137,-0.283415 0.274203,0.118987 0.419775,0.447365 0.307896,0.741937 -0.111904,0.294636 -0.450484,0.441914 -0.761994,0.307481 m -1.987184,-1.056112 c -0.285781,-0.183231 -0.353753,-0.547563 -0.17106,-0.807055 0.182718,-0.259529 0.538489,-0.322289 0.791919,-0.15902 0.253338,0.16321 0.343425,0.512802 0.18392,0.786014 -0.159528,0.273251 -0.518886,0.363351 -0.804762,0.180072 m -1.798514,-1.36069 c -0.254111,-0.225823 -0.264927,-0.597163 -0.04403,-0.825853 0.220904,-0.228699 0.583186,-0.23615 0.809437,-0.03479 0.226229,0.201343 0.260959,0.561979 0.05988,0.807828 -0.201091,0.245862 -0.571126,0.278658 -0.825267,0.05283 M 69.90618,37.44747 c -0.216309,-0.262227 -0.16987,-0.630597 0.08306,-0.822387 0.252919,-0.191777 0.611831,-0.143969 0.804694,0.08929 0.192894,0.233291 0.172352,0.594987 -0.06423,0.80738 -0.236573,0.21238 -0.60722,0.187921 -0.823509,-0.07426 m -1.296078,-1.844489 c -0.172312,-0.292496 -0.06864,-0.647815 0.210227,-0.796658 0.278829,-0.148819 0.624353,-0.04569 0.777687,0.213197 0.153397,0.258994 0.07754,0.611889 -0.188415,0.784668 -0.265919,0.172752 -0.627227,0.0912 -0.799488,-0.201189 m -0.982312,-2.023709 c -0.12203,-0.316636 0.03866,-0.64881 0.337458,-0.748666 0.298735,-0.09983 0.620654,0.0587 0.728417,0.336946 0.107831,0.278427 -0.02356,0.612708 -0.312664,0.739693 -0.289043,0.126957 -0.631229,-0.01149 -0.753203,-0.327954 m -0.626847,-2.161143 c -0.06537,-0.334596 0.151942,-0.633632 0.464757,-0.678411 0.312748,-0.04477 0.600623,0.169135 0.656883,0.460533 0.05631,0.291629 -0.131064,0.597409 -0.43698,0.672456 -0.30585,0.07503 -0.619322,-0.120187 -0.684656,-0.454558 m -0.229683,-2.256791 c -9.4e-5,-0.01447 3.19e-4,-0.02894 0.0012,-0.04338 0,0 0,0 0,0 0.02408,-0.327271 0.289614,-0.555164 0.590661,-0.539889 0.300212,0.01523 0.539475,0.257484 0.562006,0.541086 0,0 0,0 0,0 9.19e-4,0.0134 0.0014,0.02682 0.0013,0.04025 -0.0011,0.298709 -0.245066,0.565876 -0.561365,0.582954 -0.316266,0.01708 -0.591583,-0.234987 -0.593847,-0.581 m 0.218087,-2.259125 c 0.06442,-0.334669 0.377395,-0.530676 0.683454,-0.456478 0.306126,0.07421 0.494411,0.379409 0.438993,0.671192 -0.05537,0.291553 -0.34264,0.506469 -0.655628,0.462627 -0.313057,-0.04385 -0.531274,-0.342426 -0.466823,-0.677321 m 0.617061,-2.16425 c 0.121232,-0.316761 0.463039,-0.455892 0.752317,-0.329604 0.289343,0.126316 0.421515,0.460171 0.314397,0.738778 -0.107048,0.278427 -0.428541,0.437822 -0.727509,0.338737 -0.299036,-0.09911 -0.460501,-0.430953 -0.339213,-0.747892 m 0.973822,-2.027657 c 0.171662,-0.292714 0.532716,-0.374885 0.798918,-0.202662 0.266245,0.172251 0.342797,0.524876 0.189963,0.7841 -0.15277,0.259114 -0.498042,0.362998 -0.777127,0.21478 -0.279131,-0.148244 -0.383478,-0.503375 -0.211764,-0.7962 m 1.288798,-1.849366 c 0.215803,-0.262563 0.586327,-0.287617 0.823255,-0.07565 0.236944,0.21198 0.258149,0.573561 0.06569,0.807159 -0.192428,0.233559 -0.551255,0.282054 -0.804481,0.09075 -0.253244,-0.191315 -0.300303,-0.559636 -0.08448,-0.822245 m 1.561989,-1.629374 c 0.253742,-0.226293 0.623791,-0.194107 0.825329,0.05143 0.201532,0.245525 0.167479,0.606205 -0.05842,0.807955 -0.225922,0.201768 -0.588279,0.19498 -0.809572,-0.03334 -0.221286,-0.228314 -0.211064,-0.599744 0.04265,-0.826027 m 1.793394,-1.367684 c 0.285535,-0.183845 0.645047,-0.09441 0.805141,0.178574 0.160072,0.272946 0.07072,0.622749 -0.182375,0.786488 -0.253183,0.163798 -0.609185,0.101723 -0.7924,-0.157504 -0.183191,-0.259193 -0.115827,-0.623747 0.169616,-0.807546 m 1.983013,-1.064293 c 0.311203,-0.135137 0.650077,0.01139 0.762689,0.305788 0.11259,0.294336 -0.03215,0.623097 -0.306164,0.742759 -0.274176,0.119732 -0.614008,0.0022 -0.752966,-0.281737 -0.138929,-0.283874 -0.01462,-0.631723 0.296422,-0.766802 m 2.130847,-0.719204 c 0.33071,-0.08007 0.638915,0.123197 0.697975,0.433072 0.05905,0.309806 -0.141092,0.60714 -0.429793,0.676765 -0.288921,0.06968 -0.602727,-0.103707 -0.691269,-0.406037 -0.08852,-0.302262 0.09257,-0.623767 0.423067,-0.703795 m 2.236896,-0.332415 c 0.343948,-0.01856 0.611668,0.240927 0.610996,0.560423 -6.71e-4,0.319452 -0.255993,0.574782 -0.55326,0.588509 -0.29751,0.01374 -0.57525,-0.216087 -0.607308,-0.530406 -0.03205,-0.314273 0.20584,-0.599964 0.549551,-0.618525" /></g></g></svg>
