<?xml version="1.0" encoding="UTF-8" standalone="no"?>
<!-- Created with Inkscape (http://www.inkscape.org/) -->

<svg
   width="3.4395828mm"
   height="3.4395828mm"
   viewBox="0 0 3.4395828 3.4395828"
   version="1.1"
   id="svg5"
   xml:space="preserve"
   xmlns="http://www.w3.org/2000/svg"
   xmlns:svg="http://www.w3.org/2000/svg"><defs
     id="defs2" /><g
     id="layer1"
     transform="translate(-116.68418,-26.523917)"><path
       style="fill:#a6947d;fill-opacity:1;stroke:#000000;stroke-width:0.2;stroke-dasharray:none;stroke-opacity:1"
       id="path70018"
       d="m 118.40569,26.623919 a 1.6197916,1.6197916 0 0 1 1.61806,1.621501 1.6197916,1.6197916 0 0 1 -1.62149,1.61808 1.6197916,1.6197916 0 0 1 -1.61809,-1.621472 1.6197916,1.6197916 0 0 1 1.62146,-1.618109" /><path
       style="fill:#ffffff;fill-opacity:1;stroke:#000000;stroke-width:0.2;stroke-dasharray:none;stroke-opacity:1"
       id="path70815"
       d="m 118.40522,27.057174 a 1.1865364,1.1865364 0 0 1 1.18528,1.187788 1.1865364,1.1865364 0 0 1 -1.18778,1.185283 1.1865364,1.1865364 0 0 1 -1.18529,-1.187768 1.1865364,1.1865364 0 0 1 1.18775,-1.185303" /></g></svg>
